Title: 
Blue Eyelids Aka Parpados Azules

Country:
Mexico/2007

Language:
Spanish

Subtitle:
English

Director:
Ernesto Contreras

Writer:
Carlos Contreras

Stars:
Cecilia Suárez, Enrique Arreola, Magali Boysselle 

Sumary:
Marina wins a paradise vacation for two, but when she realizes that she has no one to bring along, she decides to invite a stranger named Victor. The pair soon discovers that true love depends more on compatibility rather than idyllic scenery.

Trivia:
Won Special Jury Prize/ World Cinema/ Dramatic - Sundance Film Festival 2008

Imdb: 
http://www.imdb.com/title/tt0481320/?ref_=fn_al_tt_1

Trailer: 
http://www.metacafe.com/watch/5028014/blue_eyelids_movie_trailer/ 


Media Info:

General
Complete name                            : Blue.Eyelids.2007.DVDRip.AC3.XviD.HORiZON-ArtSubs
Format                                   : AVI
Format/Info                              : Audio Video Interleave
File size                                : 1.37 GiB
Duration                                 : 1h 38mn
Overall bit rate                         : 1 992 Kbps

Video
ID                                       : 0
Format                                   : MPEG-4 Visual
Format profile                           : Simple@L3
Format settings, BVOP                    : No
Format settings, QPel                    : No
Format settings, GMC                     : No warppoints
Format settings, Matrix                  : Default (H.263)
Codec ID                                 : XVID
Codec ID/Hint                            : XviD
Duration                                 : 1h 38mn
Bit rate                                 : 1 597 Kbps
Width                                    : 704 pixels
Height                                   : 400 pixels
Display aspect ratio                     : 16:9
Frame rate                               : 23.976 fps
Color space                              : YUV
Chroma subsampling                       : 4:2:0
Bit depth                                : 8 bits
Scan type                                : Progressive
Compression mode                         : Lossy
Bits/(Pixel*Frame)                       : 0.237
Stream size                              : 1.10 GiB (80%)
Writing library                          : XviD 1.1.2 (UTC 2006-11-01)

Audio
ID                                       : 1
Format                                   : AC-3
Format/Info                              : Audio Coding 3
Mode extension                           : CM (complete main)
Format settings, Endianness              : Big
Codec ID                                 : 2000
Duration                                 : 1h 38mn
Bit rate mode                            : Constant
Bit rate                                 : 384 Kbps
Channel(s)                               : 6 channels
Channel positions                        : Front: L C R, Side: L R, LFE
Sampling rate                            : 48.0 KHz
Bit depth                                : 16 bits
Compression mode                         : Lossy
Stream size                              : 270 MiB (19%)
Alignment                                : Aligned on interleaves
Interleave, duration                     : 32 ms (0.77 video frame)
Interleave, preload duration             : 32 ms

